<svg width="376" height="112" viewBox="0 0 376 112" fill="none" xmlns="http://www.w3.org/2000/svg">
<rect y="19" width="162" height="45" rx="22.5" fill="#F54748"/>
<path d="M26.498 46C28.226 46 29.594 45.424 30.584 44.272C31.574 43.102 32.078 41.626 32.078 39.826C32.078 38.008 31.574 36.532 30.566 35.362C29.576 34.192 28.208 33.598 26.498 33.598H21.692V46H26.498ZM23.366 35.164H26.498C27.74 35.164 28.712 35.596 29.378 36.478C30.062 37.342 30.404 38.458 30.404 39.826C30.404 41.176 30.062 42.292 29.378 43.156C28.712 44.002 27.74 44.434 26.498 44.434H23.366V35.164ZM33.8354 41.77C33.8354 43.084 34.2674 44.146 35.1134 44.956C35.9594 45.766 37.0034 46.18 38.2274 46.18C39.4514 46.18 40.4954 45.766 41.3414 44.956C42.2054 44.128 42.6374 43.066 42.6374 41.77C42.6374 40.474 42.2054 39.43 41.3594 38.62C40.5134 37.81 39.4694 37.414 38.2274 37.414C36.9854 37.414 35.9414 37.81 35.0954 38.62C34.2494 39.43 33.8354 40.474 33.8354 41.77ZM40.9994 41.77C40.9994 42.616 40.7294 43.3 40.1894 43.822C39.6674 44.344 39.0014 44.596 38.2274 44.596C37.4534 44.596 36.7874 44.344 36.2474 43.822C35.7254 43.3 35.4554 42.616 35.4554 41.77C35.4554 40.942 35.7254 40.276 36.2474 39.772C36.7874 39.268 37.4534 39.016 38.2274 39.016C39.0014 39.016 39.6674 39.268 40.1894 39.772C40.7294 40.276 40.9994 40.942 40.9994 41.77ZM57.133 37.594H55.387L53.281 43.48L51.175 37.594H49.591L47.485 43.48L45.379 37.594H43.633L46.837 46H48.169L50.383 39.826L52.669 46H54.019L57.133 37.594ZM60.5177 41.464C60.5177 39.808 61.5797 39.016 62.8937 39.016C64.0457 39.016 64.7477 39.862 64.7477 41.248V46H66.3857V41.14C66.3857 38.764 65.2337 37.414 63.1457 37.414C62.1197 37.414 61.0037 37.918 60.5177 38.854V37.594H58.8797V46H60.5177V41.464ZM69.0223 46H70.6603V33.022H69.0223V46ZM72.8413 41.77C72.8413 43.084 73.2733 44.146 74.1193 44.956C74.9653 45.766 76.0093 46.18 77.2333 46.18C78.4573 46.18 79.5013 45.766 80.3473 44.956C81.2113 44.128 81.6433 43.066 81.6433 41.77C81.6433 40.474 81.2113 39.43 80.3653 38.62C79.5193 37.81 78.4753 37.414 77.2333 37.414C75.9913 37.414 74.9473 37.81 74.1013 38.62C73.2553 39.43 72.8413 40.474 72.8413 41.77ZM80.0053 41.77C80.0053 42.616 79.7353 43.3 79.1953 43.822C78.6733 44.344 78.0073 44.596 77.2333 44.596C76.4593 44.596 75.7933 44.344 75.2533 43.822C74.7313 43.3 74.4613 42.616 74.4613 41.77C74.4613 40.942 74.7313 40.276 75.2533 39.772C75.7933 39.268 76.4593 39.016 77.2333 39.016C78.0073 39.016 78.6733 39.268 79.1953 39.772C79.7353 40.276 80.0053 40.942 80.0053 41.77ZM92.1031 46V33.022H90.4651V38.854C89.9071 37.918 88.7731 37.414 87.4951 37.414C86.3071 37.414 85.2991 37.81 84.4891 38.62C83.6791 39.43 83.2651 40.474 83.2651 41.788C83.2651 43.084 83.6791 44.146 84.4891 44.956C85.3171 45.766 86.3251 46.18 87.5131 46.18C88.7371 46.18 89.9071 45.64 90.4651 44.704V46H92.1031ZM87.6571 39.016C88.3951 39.016 89.0431 39.268 89.6011 39.754C90.1591 40.24 90.4471 40.924 90.4471 41.77C90.4471 42.616 90.1771 43.3 89.6191 43.822C89.0791 44.326 88.4311 44.578 87.6571 44.578C86.8831 44.578 86.2351 44.308 85.7131 43.786C85.1911 43.264 84.9391 42.58 84.9391 41.77C84.9391 40.96 85.1911 40.294 85.7131 39.79C86.2351 39.268 86.8831 39.016 87.6571 39.016ZM95.9246 41.14C96.1226 39.754 97.1666 38.89 98.5886 38.89C99.9566 38.89 100.947 39.754 101.145 41.14H95.9246ZM102.765 41.77C102.765 40.456 102.369 39.412 101.577 38.62C100.803 37.81 99.7946 37.414 98.5886 37.414C97.3646 37.414 96.3386 37.81 95.5106 38.62C94.7006 39.412 94.2866 40.456 94.2866 41.77C94.2866 43.084 94.7006 44.146 95.5106 44.956C96.3386 45.766 97.3646 46.18 98.5886 46.18C100.263 46.18 101.757 45.388 102.459 43.948L101.775 43.696C101.451 43.57 101.217 43.462 101.055 43.408C100.605 44.218 99.6686 44.704 98.6426 44.704C97.2026 44.704 96.1226 43.804 95.9246 42.418H102.747C102.765 42.292 102.765 42.076 102.765 41.77ZM113.406 35.83L115.458 41.338H111.354L113.406 35.83ZM117.24 46H119.004L114.306 33.598H112.506L107.79 46H109.572L110.778 42.85H116.034L117.24 46ZM120.561 37.594V50.086H122.199V44.74C122.721 45.676 123.909 46.18 125.133 46.18C126.321 46.18 127.311 45.784 128.121 44.974C128.931 44.164 129.345 43.12 129.345 41.824C129.345 40.51 128.931 39.448 128.121 38.638C127.311 37.828 126.303 37.414 125.133 37.414C123.927 37.414 122.757 37.972 122.199 38.908V37.594H120.561ZM122.217 41.842C122.217 40.978 122.487 40.294 123.009 39.79C123.549 39.268 124.197 39.016 124.971 39.016C125.745 39.016 126.375 39.286 126.897 39.808C127.419 40.33 127.689 41.014 127.689 41.842C127.689 43.48 126.537 44.578 124.971 44.578C124.233 44.578 123.603 44.344 123.045 43.858C122.487 43.372 122.217 42.688 122.217 41.842ZM131.53 37.594V50.086H133.168V44.74C133.69 45.676 134.878 46.18 136.102 46.18C137.29 46.18 138.28 45.784 139.09 44.974C139.9 44.164 140.314 43.12 140.314 41.824C140.314 40.51 139.9 39.448 139.09 38.638C138.28 37.828 137.272 37.414 136.102 37.414C134.896 37.414 133.726 37.972 133.168 38.908V37.594H131.53ZM133.186 41.842C133.186 40.978 133.456 40.294 133.978 39.79C134.518 39.268 135.166 39.016 135.94 39.016C136.714 39.016 137.344 39.286 137.866 39.808C138.388 40.33 138.658 41.014 138.658 41.842C138.658 43.48 137.506 44.578 135.94 44.578C135.202 44.578 134.572 44.344 134.014 43.858C133.456 43.372 133.186 42.688 133.186 41.842Z" fill="white"/>
<path d="M282.66 37.185L279.158 49H276.965L274.483 40.058L271.848 49L269.672 49.017L266.323 37.185H268.38L270.828 46.807L273.48 37.185H275.656L278.121 46.756L280.586 37.185H282.66ZM283.612 44.274C283.612 43.3333 283.805 42.5003 284.19 41.775C284.587 41.0497 285.12 40.4887 285.788 40.092C286.468 39.684 287.216 39.48 288.032 39.48C288.769 39.48 289.409 39.6273 289.953 39.922C290.509 40.2053 290.951 40.5623 291.279 40.993V39.633H293.234V49H291.279V47.606C290.951 48.048 290.503 48.4163 289.936 48.711C289.37 49.0057 288.724 49.153 287.998 49.153C287.194 49.153 286.457 48.949 285.788 48.541C285.12 48.1217 284.587 47.5437 284.19 46.807C283.805 46.059 283.612 45.2147 283.612 44.274ZM291.279 44.308C291.279 43.662 291.143 43.101 290.871 42.625C290.611 42.149 290.265 41.7863 289.834 41.537C289.404 41.2877 288.939 41.163 288.44 41.163C287.942 41.163 287.477 41.2877 287.046 41.537C286.616 41.775 286.264 42.132 285.992 42.608C285.732 43.0727 285.601 43.628 285.601 44.274C285.601 44.92 285.732 45.4867 285.992 45.974C286.264 46.4613 286.616 46.8353 287.046 47.096C287.488 47.3453 287.953 47.47 288.44 47.47C288.939 47.47 289.404 47.3453 289.834 47.096C290.265 46.8467 290.611 46.484 290.871 46.008C291.143 45.5207 291.279 44.954 291.279 44.308ZM298.041 41.214V46.399C298.041 46.7503 298.12 47.0053 298.279 47.164C298.449 47.3113 298.732 47.385 299.129 47.385H300.319V49H298.789C297.916 49 297.248 48.796 296.783 48.388C296.318 47.98 296.086 47.317 296.086 46.399V41.214H294.981V39.633H296.086V37.304H298.041V39.633H300.319V41.214H298.041ZM301.459 44.308C301.459 43.3447 301.652 42.5003 302.037 41.775C302.434 41.0383 302.978 40.4717 303.669 40.075C304.36 39.6783 305.154 39.48 306.049 39.48C307.182 39.48 308.117 39.752 308.854 40.296C309.602 40.8287 310.106 41.5937 310.367 42.591H308.276C308.106 42.1263 307.834 41.7637 307.46 41.503C307.086 41.2423 306.616 41.112 306.049 41.112C305.256 41.112 304.621 41.3953 304.145 41.962C303.68 42.5173 303.448 43.2993 303.448 44.308C303.448 45.3167 303.68 46.1043 304.145 46.671C304.621 47.2377 305.256 47.521 306.049 47.521C307.171 47.521 307.913 47.028 308.276 46.042H310.367C310.095 46.994 309.585 47.7533 308.837 48.32C308.089 48.8753 307.16 49.153 306.049 49.153C305.154 49.153 304.36 48.9547 303.669 48.558C302.978 48.15 302.434 47.5833 302.037 46.858C301.652 46.1213 301.459 45.2713 301.459 44.308ZM317.143 39.48C317.857 39.48 318.492 39.633 319.047 39.939C319.614 40.245 320.056 40.6983 320.373 41.299C320.702 41.8997 320.866 42.625 320.866 43.475V49H318.945V43.764C318.945 42.9253 318.736 42.285 318.316 41.843C317.897 41.3897 317.325 41.163 316.599 41.163C315.874 41.163 315.296 41.3897 314.865 41.843C314.446 42.285 314.236 42.9253 314.236 43.764V49H312.298V36.42H314.236V40.721C314.565 40.3243 314.979 40.0183 315.477 39.803C315.987 39.5877 316.543 39.48 317.143 39.48ZM337.937 37.185L333.5 49H331.256L326.802 37.185H328.876L332.378 47.011L335.897 37.185H337.937ZM340.544 38.392C340.193 38.392 339.898 38.273 339.66 38.035C339.422 37.797 339.303 37.5023 339.303 37.151C339.303 36.7997 339.422 36.505 339.66 36.267C339.898 36.029 340.193 35.91 340.544 35.91C340.884 35.91 341.173 36.029 341.411 36.267C341.649 36.505 341.768 36.7997 341.768 37.151C341.768 37.5023 341.649 37.797 341.411 38.035C341.173 38.273 340.884 38.392 340.544 38.392ZM341.496 39.633V49H339.558V39.633H341.496ZM343.395 44.274C343.395 43.3333 343.587 42.5003 343.973 41.775C344.369 41.0497 344.902 40.4887 345.571 40.092C346.251 39.684 347.004 39.48 347.832 39.48C348.444 39.48 349.044 39.616 349.634 39.888C350.234 40.1487 350.71 40.5 351.062 40.942V36.42H353.017V49H351.062V47.589C350.744 48.0423 350.302 48.4163 349.736 48.711C349.18 49.0057 348.54 49.153 347.815 49.153C346.999 49.153 346.251 48.949 345.571 48.541C344.902 48.1217 344.369 47.5437 343.973 46.807C343.587 46.059 343.395 45.2147 343.395 44.274ZM351.062 44.308C351.062 43.662 350.926 43.101 350.654 42.625C350.393 42.149 350.047 41.7863 349.617 41.537C349.186 41.2877 348.721 41.163 348.223 41.163C347.724 41.163 347.259 41.2877 346.829 41.537C346.398 41.775 346.047 42.132 345.775 42.608C345.514 43.0727 345.384 43.628 345.384 44.274C345.384 44.92 345.514 45.4867 345.775 45.974C346.047 46.4613 346.398 46.8353 346.829 47.096C347.271 47.3453 347.735 47.47 348.223 47.47C348.721 47.47 349.186 47.3453 349.617 47.096C350.047 46.8467 350.393 46.484 350.654 46.008C350.926 45.5207 351.062 44.954 351.062 44.308ZM364.147 44.087C364.147 44.4383 364.124 44.7557 364.079 45.039H356.922C356.979 45.787 357.256 46.3877 357.755 46.841C358.254 47.2943 358.866 47.521 359.591 47.521C360.634 47.521 361.37 47.0847 361.801 46.212H363.892C363.609 47.0733 363.093 47.7817 362.345 48.337C361.608 48.881 360.69 49.153 359.591 49.153C358.696 49.153 357.891 48.9547 357.177 48.558C356.474 48.15 355.919 47.5833 355.511 46.858C355.114 46.1213 354.916 45.2713 354.916 44.308C354.916 43.3447 355.109 42.5003 355.494 41.775C355.891 41.0383 356.44 40.4717 357.143 40.075C357.857 39.6783 358.673 39.48 359.591 39.48C360.475 39.48 361.263 39.6727 361.954 40.058C362.645 40.4433 363.184 40.9873 363.569 41.69C363.954 42.3813 364.147 43.1803 364.147 44.087ZM362.124 43.475C362.113 42.761 361.858 42.1887 361.359 41.758C360.86 41.3273 360.243 41.112 359.506 41.112C358.837 41.112 358.265 41.3273 357.789 41.758C357.313 42.1773 357.03 42.7497 356.939 43.475H362.124ZM370.117 49.153C369.233 49.153 368.434 48.9547 367.72 48.558C367.006 48.15 366.445 47.5833 366.037 46.858C365.629 46.1213 365.425 45.2713 365.425 44.308C365.425 43.356 365.635 42.5117 366.054 41.775C366.474 41.0383 367.046 40.4717 367.771 40.075C368.497 39.6783 369.307 39.48 370.202 39.48C371.098 39.48 371.908 39.6783 372.633 40.075C373.359 40.4717 373.931 41.0383 374.35 41.775C374.77 42.5117 374.979 43.356 374.979 44.308C374.979 45.26 374.764 46.1043 374.333 46.841C373.903 47.5777 373.313 48.15 372.565 48.558C371.829 48.9547 371.013 49.153 370.117 49.153ZM370.117 47.47C370.616 47.47 371.081 47.351 371.511 47.113C371.953 46.875 372.31 46.518 372.582 46.042C372.854 45.566 372.99 44.988 372.99 44.308C372.99 43.628 372.86 43.0557 372.599 42.591C372.339 42.115 371.993 41.758 371.562 41.52C371.132 41.282 370.667 41.163 370.168 41.163C369.67 41.163 369.205 41.282 368.774 41.52C368.355 41.758 368.021 42.115 367.771 42.591C367.522 43.0557 367.397 43.628 367.397 44.308C367.397 45.3167 367.652 46.0987 368.162 46.654C368.684 47.198 369.335 47.47 370.117 47.47Z" fill="#686D77"/>
<g filter="url(#filter0_d_425_198)">
<circle cx="219" cy="41" r="26" fill="white"/>
</g>
<path d="M227 42.5L215.75 48.9952L215.75 36.0048L227 42.5Z" fill="#F54748"/>
<defs>
<filter id="filter0_d_425_198" x="163" y="0" width="112" height="112" filterUnits="userSpaceOnUse" color-interpolation-filters="sRGB">
<feFlood flood-opacity="0" result="BackgroundImageFix"/>
<feColorMatrix in="SourceAlpha" type="matrix" values="0 0 0 0 0 0 0 0 0 0 0 0 0 0 0 0 0 0 127 0" result="hardAlpha"/>
<feOffset dy="15"/>
<feGaussianBlur stdDeviation="15"/>
<feColorMatrix type="matrix" values="0 0 0 0 0.87451 0 0 0 0 0.411765 0 0 0 0 0.317647 0 0 0 0.3 0"/>
<feBlend mode="normal" in2="BackgroundImageFix" result="effect1_dropShadow_425_198"/>
<feBlend mode="normal" in="SourceGraphic" in2="effect1_dropShadow_425_198" result="shape"/>
</filter>
</defs>
</svg>
