<svg width="28" height="28" viewBox="0 0 28 28" fill="none" xmlns="http://www.w3.org/2000/svg">
<path d="M24.9243 11.5672C24.9243 11.5672 23.632 12.7734 21.4351 14.1949C20.832 10.7057 19.152 6.39797 15.8782 1.14258C15.8782 1.14258 14.8012 6.78566 11.2259 12.0841C9.67508 9.67182 8.98585 7.77643 8.98585 7.77643C-2.21416 19.0195 7.09046 26.9888 12.9489 26.9888C20.4443 26.9888 27.0351 23.3703 24.9243 11.5672Z" fill="#FF9D33"/>
<path d="M20.4879 21.5618C21.134 20.1402 21.6079 18.2879 21.694 15.9618C21.694 15.9618 20.7894 16.7371 19.2386 17.7279C18.8079 15.4018 17.6448 12.5587 15.3617 9.02637C15.3617 9.02637 14.6294 12.7741 12.1309 16.3494C11.054 14.7556 10.5802 13.4633 10.5802 13.4633C8.72785 16.3925 7.99554 18.7187 7.95246 20.571C6.91862 20.1833 6.27246 19.8818 6.27246 19.8818C8.03862 25.1371 11.7002 26.3002 13.3371 26.3002C16.2663 26.3002 19.2386 25.4387 22.1679 21.2602C22.1679 21.2171 21.5217 21.3895 20.4879 21.5618Z" fill="#FFCE31"/>
<path d="M9.80472 19.192C9.80472 19.192 11.0109 20.829 11.9155 20.4413C11.9155 20.4413 13.6386 17.7274 16.137 16.2197C16.137 16.2197 15.6201 20.3551 16.2232 21.0874C16.9986 22.0782 19.1093 20.0105 19.1093 20.0105C19.1093 22.4659 16.4386 25.5244 14.0263 25.5244C11.7001 25.5244 8.3401 22.8536 9.80472 19.192Z" fill="#FFDF85"/>
<path d="M21.824 8.078C22.7286 6.78569 23.3317 5.40723 23.3317 5.40723C24.8394 7.90569 23.9348 9.41338 23.2886 9.88723C22.384 10.5765 20.7902 9.58569 21.824 8.078Z" fill="#FF9D33"/>
<path d="M5.36829 7.64722C4.46368 6.13953 4.37752 4.24414 4.37752 4.24414C2.22367 7.47491 3.04214 9.28415 3.77444 9.80107C4.72214 10.5334 6.35906 9.41338 5.36829 7.64722Z" fill="#FF9D33"/>
<path d="M10.365 4.28742C10.4942 3.25357 10.0635 2.21973 10.0635 2.21973C12.0881 3.55511 12.0881 4.67511 11.8296 5.14896C11.4419 5.70896 10.2358 5.4505 10.365 4.28742Z" fill="#FF9D33"/>
</svg>
